# Blender v3.0.1 OBJ File: 'rob.blend'
# www.blender.org
mtllib rob.mtl
o juwan
v 1.600000 2.900000 -2.000000
v 1.600000 2.600000 -2.099999
v 1.600000 2.600000 -2.000000
v 1.600000 2.900000 -2.099999
v 1.600000 3.100000 -2.000000
v 1.600000 3.100000 -2.099999
v 1.700000 2.600000 -2.000000
v 1.700000 2.500000 -2.200000
v 1.700000 2.500000 -1.900000
v 1.700000 2.600000 -2.099999
v 1.700000 2.700000 -1.899999
v 1.700000 2.700000 -2.000000
v 1.700000 2.700000 -2.099999
v 1.700000 2.700001 -2.200000
v 1.700000 2.900000 -2.000000
v 1.700000 2.900000 -2.099999
v 1.700000 3.100000 -1.899999
v 1.700000 3.100000 -2.000000
v 1.700000 3.100000 -2.099999
v 1.700000 3.100000 -2.200000
v 1.800000 2.100000 -1.900000
v 1.800000 2.000000 -2.100000
v 1.800000 2.000000 -1.900000
v 1.800000 2.100000 -2.000000
v 1.800000 2.100000 -2.100000
v 1.800000 2.300000 -2.000000
v 1.800000 2.300000 -2.099999
v 1.800000 2.500000 -2.000000
v 1.800000 2.500000 -2.099999
v 1.800000 3.100000 -2.000000
v 1.800000 3.100000 -1.899999
v 1.800000 3.100000 -2.099999
v 2.000000 3.100000 -2.099999
v 1.900000 3.100000 -2.200000
v 1.900000 3.100000 -2.099999
v 2.000000 3.100000 -2.200000
v 2.000000 2.100000 -1.900000
v 2.000000 2.000000 -2.100000
v 2.000000 2.000000 -1.900000
v 2.000000 2.100000 -2.000000
v 2.000000 2.100000 -2.100000
v 2.000000 2.300000 -2.000000
v 2.000000 2.300000 -2.099999
v 2.000000 2.500000 -2.000000
v 2.000000 2.500000 -2.099999
v 1.900000 2.000000 -1.900000
v 1.900000 2.000000 -2.100000
v 1.900000 2.100000 -1.900000
v 1.900000 2.100000 -2.000000
v 1.900000 2.100000 -2.100000
v 1.900000 2.300000 -2.000000
v 1.900000 2.300000 -2.099999
v 1.900000 2.500000 -2.000000
v 1.900000 2.500000 -2.099999
v 2.000000 3.100000 -2.099999
v 2.000000 3.100000 -2.200000
v 1.800000 3.100000 -1.900000
v 2.100000 2.000000 -1.900000
v 2.100000 2.000000 -2.100000
v 2.100000 2.100000 -1.900000
v 2.100000 2.100000 -2.000000
v 2.100000 2.100000 -2.100000
v 2.100000 2.300000 -2.000000
v 2.100000 2.300000 -2.099999
v 2.100000 2.500000 -2.000000
v 2.100000 2.500000 -2.099999
v 2.100000 3.100000 -1.899999
v 2.100000 3.100000 -2.000000
v 2.100000 3.100000 -2.099999
v 2.086354 3.181524 -2.172600
v 2.086354 3.181524 -1.925198
v 2.100000 3.500000 -1.899999
v 2.086354 3.446252 -2.172600
v 2.200000 2.500000 -1.900000
v 2.200000 2.500000 -2.200000
v 2.200000 2.600000 -2.000000
v 2.200000 2.600000 -2.099999
v 2.200000 2.700000 -1.899999
v 2.200000 2.700000 -2.000000
v 2.200000 2.700000 -2.099999
v 2.200000 2.700001 -2.200000
v 2.200000 2.900000 -2.000000
v 2.200000 2.900000 -2.099999
v 2.200000 3.100000 -1.899999
v 2.200000 3.100000 -2.000000
v 2.200000 3.100000 -2.099999
v 2.200000 3.100000 -2.200000
v 2.300000 2.600000 -2.000000
v 2.300000 2.600000 -2.099999
v 2.300000 2.900000 -2.000000
v 2.300000 2.900000 -2.099999
v 2.300000 3.100000 -2.000000
v 2.300000 3.100000 -2.099999
v 1.800000 3.100000 -1.899999
v 1.700000 3.100000 -1.899999
v 1.700000 2.700000 -1.899999
v 1.900000 2.000000 -1.900000
v 1.800000 2.100000 -1.900000
v 1.800000 2.000000 -1.900000
v 1.900000 2.100000 -1.900000
v 1.900000 3.000000 -1.899999
v 1.900000 3.100000 -1.899999
v 2.086354 3.446252 -1.925198
v 1.811513 3.181524 -2.172600
v 1.811513 3.181524 -1.925198
v 1.811513 3.446252 -2.172600
v 2.000000 3.000000 -1.899999
v 2.000000 3.100000 -1.899999
v 1.811513 3.446252 -1.925198
v 1.901719 3.100000 -2.006850
v 2.100000 2.000000 -1.900000
v 2.000000 2.100000 -1.900000
v 2.000000 2.000000 -1.900000
v 2.100000 2.100000 -1.900000
v 2.100000 3.100000 -1.899999
v 1.901719 3.176823 -2.006850
v 2.100000 3.500000 -1.899999
v 2.200000 2.500000 -1.900000
v 1.700000 2.500000 -1.900000
v 2.200000 2.700000 -1.899999
v 2.200000 3.100000 -1.899999
v 1.700000 2.600000 -2.000000
v 1.600000 2.900000 -2.000000
v 1.600000 2.600000 -2.000000
v 1.700000 2.700000 -2.000000
v 1.700000 2.900000 -2.000000
v 1.600000 3.100000 -2.000000
v 1.700000 3.100000 -2.000000
v 1.900000 2.100000 -2.000000
v 1.800000 2.300000 -2.000000
v 1.800000 2.100000 -2.000000
v 1.900000 2.300000 -2.000000
v 1.800000 2.500000 -2.000000
v 1.900000 2.500000 -2.000000
v 2.100000 2.100000 -2.000000
v 2.000000 2.300000 -2.000000
v 2.000000 2.100000 -2.000000
v 2.100000 2.300000 -2.000000
v 2.000000 2.500000 -2.000000
v 2.100000 2.500000 -2.000000
v 2.300000 2.600000 -2.000000
v 2.200000 2.700000 -2.000000
v 2.200000 2.600000 -2.000000
v 2.200000 2.900000 -2.000000
v 2.300000 2.900000 -2.000000
v 2.200000 3.100000 -2.000000
v 2.300000 3.100000 -2.000000
v 1.600000 2.600000 -2.099999
v 1.600000 2.900000 -2.099999
v 1.700000 2.600000 -2.099999
v 1.700000 2.700000 -2.099999
v 1.600000 3.100000 -2.099999
v 1.700000 2.900000 -2.099999
v 1.700000 3.100000 -2.099999
v 1.800000 2.000000 -2.100000
v 1.800000 2.100000 -2.100000
v 1.900000 2.000000 -2.100000
v 1.800000 2.300000 -2.099999
v 1.900000 2.100000 -2.100000
v 1.800000 2.500000 -2.099999
v 1.900000 2.300000 -2.099999
v 1.900000 2.500000 -2.099999
v 1.800000 3.100000 -2.099999
v 1.999845 3.100000 -2.006850
v 1.900000 3.100000 -2.099999
v 1.999845 3.176823 -2.006850
v 2.000000 2.000000 -2.100000
v 2.000000 2.100000 -2.100000
v 2.100000 2.000000 -2.100000
v 2.000000 2.300000 -2.099999
v 2.100000 2.100000 -2.100000
v 2.000000 2.500000 -2.099999
v 2.100000 2.300000 -2.099999
v 2.100000 2.500000 -2.099999
v 2.000000 3.100000 -2.099999
v 1.901719 3.100000 -2.100000
v 2.100000 3.100000 -2.099999
v 1.901719 3.176823 -2.100000
v 2.200000 2.600000 -2.099999
v 2.200000 2.700000 -2.099999
v 2.300000 2.600000 -2.099999
v 2.200000 2.900000 -2.099999
v 2.200000 3.100000 -2.099999
v 2.300000 2.900000 -2.099999
v 2.300000 3.100000 -2.099999
v 1.700000 2.700001 -2.200000
v 1.700000 3.100000 -2.200000
v 1.900000 3.100000 -2.200000
v 1.999845 3.100000 -2.100000
v 1.999845 3.176823 -2.100000
v 1.901719 3.176823 -2.100000
v 2.000000 3.100000 -2.200000
v 1.901719 3.176823 -2.100000
v 1.999845 3.176823 -2.099999
v 1.999845 3.176823 -2.099999
v 1.700000 2.500000 -2.200000
v 2.200000 2.500000 -2.200000
v 2.200000 2.700001 -2.200000
v 2.200000 3.100000 -2.200000
v 1.800000 2.000000 -2.100000
v 1.900000 2.000000 -1.900000
v 1.800000 2.000000 -1.900000
v 1.900000 2.000000 -2.100000
v 2.000000 2.000000 -2.100000
v 2.100000 2.000000 -1.900000
v 2.000000 2.000000 -1.900000
v 2.100000 2.000000 -2.100000
v 1.800000 2.500000 -2.000000
v 2.200000 2.500000 -1.900000
v 1.700000 2.500000 -1.900000
v 1.900000 2.500000 -2.000000
v 2.000000 2.500000 -2.000000
v 2.100000 2.500000 -2.000000
v 1.800000 2.500000 -2.099999
v 1.900000 2.500000 -2.099999
v 2.000000 2.500000 -2.099999
v 2.100000 2.500000 -2.099999
v 1.700000 2.500000 -2.200000
v 2.200000 2.500000 -2.200000
v 1.600000 2.600000 -2.099999
v 1.700000 2.600000 -2.000000
v 1.600000 2.600000 -2.000000
v 1.700000 2.600000 -2.099999
v 2.200000 2.600000 -2.099999
v 2.300000 2.600000 -2.000000
v 2.200000 2.600000 -2.000000
v 2.300000 2.600000 -2.099999
v 1.901719 3.176823 -2.006850
v 1.901719 3.176823 -2.006850
v 1.999845 3.176823 -2.006850
v 1.999845 3.176823 -2.006850
v 1.999845 3.100000 -2.006850
v 1.999845 3.100000 -2.006850
v 1.901719 3.100000 -2.006850
v 1.901719 3.100000 -2.006850
v 1.800000 2.100000 -1.900000
v 1.900000 2.100000 -1.900000
v 1.800000 2.100000 -2.000000
v 1.900000 2.100000 -2.000000
v 2.000000 2.100000 -1.900000
v 2.100000 2.100000 -1.900000
v 2.000000 2.100000 -2.000000
v 2.100000 2.100000 -2.000000
v 1.700000 3.100000 -1.899999
v 1.800000 3.100000 -1.899999
v 1.700000 3.100000 -2.000000
v 1.800000 3.100000 -2.000000
v 2.100000 3.100000 -1.899999
v 2.200000 3.100000 -1.899999
v 2.100000 3.100000 -2.000000
v 2.200000 3.100000 -2.000000
v 1.600000 3.100000 -2.099999
v 1.600000 3.100000 -2.000000
v 1.700000 3.100000 -2.099999
v 1.800000 3.100000 -2.099999
v 2.300000 3.100000 -2.000000
v 2.100000 3.100000 -2.099999
v 2.200000 3.100000 -2.099999
v 2.300000 3.100000 -2.099999
v 1.900000 3.100000 -2.099999
v 1.700000 3.100000 -2.200000
v 1.900000 3.100000 -2.200000
v 2.000000 3.100000 -2.200000
v 2.000000 3.100000 -2.099999
v 2.200000 3.100000 -2.200000
v 1.999845 3.100000 -2.099999
v 2.100000 3.500000 -1.899999
v 1.999845 3.100000 -2.099999
v 1.901719 3.100000 -2.100000
v 1.901719 3.100000 -2.100000
v 2.100000 3.100000 -2.099999
v 2.100000 3.100000 -1.900000
v 2.100000 3.100000 -2.099999
v 2.100000 3.100000 -1.900000
v 1.800000 3.100000 -2.099999
v 1.800000 3.100000 -1.900000
v 1.800000 3.100000 -2.099999
vt 0.149169 0.769918
vt 0.149169 0.631304
vt 0.282683 0.631304
vt 0.282683 0.769918
vt 0.652178 0.580870
vt 0.776954 0.580870
vt 0.776954 0.719484
vt 0.652178 0.719484
vt 0.328699 0.742610
vt 0.453474 0.742610
vt 0.453474 0.876123
vt 0.328699 0.876123
vt 0.713050 0.318261
vt 0.837825 0.318261
vt 0.837825 0.456875
vt 0.713050 0.456875
vt 0.776954 0.863435
vt 0.652179 0.863435
vt 0.652179 0.729921
vt 0.776954 0.729921
vt 0.652178 0.873872
vt 0.699158 0.873872
vt 0.699158 0.923361
vt 0.652178 0.923361
vt 0.813918 0.166959
vt 0.852663 0.166958
vt 0.852663 0.216448
vt 0.813918 0.216448
vt 0.848262 0.742610
vt 0.887007 0.742610
vt 0.887007 0.789589
vt 0.848262 0.789589
vt 0.295683 0.890716
vt 0.248704 0.890716
vt 0.248704 0.841227
vt 0.295683 0.841227
vt 0.813918 0.226885
vt 0.852663 0.226885
vt 0.852663 0.276374
vt 0.813918 0.276374
vt 0.887007 0.847006
vt 0.848262 0.847006
vt 0.848262 0.800026
vt 0.887007 0.800026
vt 0.530436 0.286950
vt 0.530436 0.286950
vt 0.530436 0.286950
vt 0.530436 0.286950
vt 0.530436 0.286950
vt 0.530436 0.286950
vt 0.433094 0.936050
vt 0.386115 0.936050
vt 0.386115 0.886561
vt 0.433094 0.886561
vt 0.756574 0.923361
vt 0.709595 0.923361
vt 0.709595 0.873872
vt 0.756574 0.873872
vt 0.530436 0.286950
vt 0.530436 0.286950
vt 0.530436 0.297387
vt 0.530436 0.297387
vt 0.530436 0.297387
vt 0.530436 0.297387
vt 0.530436 0.297387
vt 0.530436 0.297387
vt 0.328699 0.936050
vt 0.328699 0.886561
vt 0.375678 0.886561
vt 0.375678 0.936050
vt 0.187832 0.890716
vt 0.187832 0.841227
vt 0.234812 0.841227
vt 0.234812 0.890716
vt 0.530436 0.307824
vt 0.530436 0.307824
vt 0.530436 0.307824
vt 0.530436 0.307824
vt 0.530436 0.297387
vt 0.530436 0.297387
vt 0.753047 0.005219
vt 0.853916 0.005219
vt 0.853916 0.156521
vt 0.753047 0.156521
vt 0.530436 0.307824
vt 0.530436 0.307824
vt 0.530436 0.307824
vt 0.530436 0.307824
vt 0.787391 0.580870
vt 0.888259 0.580870
vt 0.888259 0.732173
vt 0.787391 0.732173
vt 0.005219 0.769918
vt 0.005219 0.631304
vt 0.138732 0.631304
vt 0.138732 0.769918
vt 0.524782 0.843478
vt 0.575217 0.994781
vt 0.524782 0.994781
vt 0.575217 0.843478
vt 0.524782 0.742610
vt 0.575217 0.742610
vt 0.217393 0.570433
vt 0.318261 0.620867
vt 0.166958 0.620867
vt 0.267827 0.570433
vt 0.166958 0.519999
vt 0.217393 0.519999
vt 0.267827 0.519999
vt 0.318261 0.519999
vt 0.217393 0.419130
vt 0.267827 0.419130
vt 0.166958 0.318261
vt 0.217393 0.318261
vt 0.267827 0.318261
vt 0.318261 0.318261
vt 0.601744 0.519999
vt 0.702613 0.570433
vt 0.601744 0.570433
vt 0.652178 0.519999
vt 0.702613 0.519999
vt 0.652178 0.419130
vt 0.702613 0.419130
vt 0.652178 0.318261
vt 0.702613 0.318261
vt 0.066090 0.830790
vt 0.116524 0.780355
vt 0.116524 0.830790
vt 0.066090 0.780355
vt 0.641741 0.206956
vt 0.742610 0.257390
vt 0.641741 0.257390
vt 0.692176 0.206956
vt 0.742610 0.206956
vt 0.692176 0.106087
vt 0.742610 0.106087
vt 0.692176 0.005219
vt 0.742610 0.005219
vt 0.631305 0.257390
vt 0.530436 0.257390
vt 0.631305 0.206956
vt 0.580870 0.206956
vt 0.530436 0.206956
vt 0.580870 0.106087
vt 0.530436 0.106087
vt 0.580870 0.005219
vt 0.530436 0.005219
vt 0.591307 0.570433
vt 0.490438 0.570433
vt 0.591307 0.519999
vt 0.540873 0.519999
vt 0.490438 0.519999
vt 0.540873 0.419130
vt 0.490438 0.419130
vt 0.540873 0.318261
vt 0.490438 0.318261
vt 0.005219 0.318261
vt 0.156521 0.318261
vt 0.055653 0.368696
vt 0.106087 0.368696
vt 0.005219 0.419130
vt 0.055653 0.419130
vt 0.106087 0.419130
vt 0.156521 0.419130
vt 0.055653 0.519999
vt 0.106087 0.519999
vt 0.005219 0.620867
vt 0.055653 0.620867
vt 0.106087 0.620867
vt 0.156521 0.620867
vt 0.925224 0.005219
vt 0.975658 0.005219
vt 0.925224 0.156522
vt 0.975658 0.156522
vt 0.925224 0.257390
vt 0.975658 0.257390
vt 0.206956 0.005219
vt 0.257390 0.005219
vt 0.257390 0.206956
vt 0.187832 0.780355
vt 0.238267 0.830790
vt 0.187832 0.830790
vt 0.238267 0.780355
vt 0.156522 0.055653
vt 0.156522 0.005219
vt 0.106087 0.055653
vt 0.106087 0.005219
vt 0.248704 0.830790
vt 0.299138 0.780355
vt 0.299138 0.830790
vt 0.248704 0.780355
vt 0.055653 0.005219
vt 0.005219 0.307824
vt 0.257390 0.307824
vt 0.005219 0.206956
vt 0.005219 0.005219
vt 0.848262 0.570433
vt 0.898696 0.419130
vt 0.898696 0.570433
vt 0.848262 0.519999
vt 0.848262 0.419130
vt 0.898696 0.318261
vt 0.848262 0.318261
vt 0.005219 0.982093
vt 0.055653 0.881224
vt 0.055653 0.982093
vt 0.005219 0.881224
vt 0.055653 0.780355
vt 0.005219 0.780355
vt 0.787391 0.944347
vt 0.837825 0.843479
vt 0.837825 0.944347
vt 0.787391 0.843479
vt 0.837825 0.742610
vt 0.787391 0.742610
vt 0.585653 0.994781
vt 0.636088 0.944347
vt 0.636088 0.994781
vt 0.636088 0.843478
vt 0.585653 0.843478
vt 0.636088 0.742610
vt 0.585653 0.742610
vt 0.864353 0.257390
vt 0.864353 0.106087
vt 0.914787 0.257390
vt 0.914787 0.206956
vt 0.864353 0.005219
vt 0.914787 0.106087
vt 0.914787 0.005219
vt 0.898696 0.833041
vt 0.898696 0.782607
vt 0.949131 0.833041
vt 0.898696 0.681739
vt 0.949131 0.782607
vt 0.898696 0.580870
vt 0.949131 0.681739
vt 0.949131 0.580870
vt 0.909133 0.570433
vt 0.909133 0.519999
vt 0.959568 0.570433
vt 0.909133 0.419130
vt 0.959568 0.519999
vt 0.909133 0.318261
vt 0.959568 0.419130
vt 0.959568 0.318261
vt 0.463911 0.994781
vt 0.463911 0.944347
vt 0.514345 0.994781
vt 0.463911 0.843478
vt 0.463911 0.742610
vt 0.514345 0.843478
vt 0.514345 0.742610
vt 0.267827 0.206956
vt 0.267827 0.005219
vt 0.368696 0.005219
vt 0.419130 0.005219
vt 0.267827 0.307824
vt 0.519999 0.307824
vt 0.519999 0.206956
vt 0.519999 0.005219
vt 0.713050 0.467312
vt 0.763484 0.568181
vt 0.713050 0.568181
vt 0.763484 0.467312
vt 0.753047 0.166958
vt 0.803481 0.267827
vt 0.753047 0.267827
vt 0.803481 0.166958
vt 0.379133 0.368696
vt 0.328699 0.570433
vt 0.328699 0.318261
vt 0.379133 0.419130
vt 0.379133 0.469564
vt 0.379133 0.519999
vt 0.429567 0.368696
vt 0.429567 0.419130
vt 0.429567 0.469564
vt 0.429567 0.519999
vt 0.480001 0.318261
vt 0.480001 0.570433
vt 0.177395 0.780355
vt 0.126961 0.830790
vt 0.126961 0.780355
vt 0.177395 0.830790
vt 0.126961 0.841227
vt 0.177396 0.891661
vt 0.126961 0.891661
vt 0.177396 0.841227
vt 0.773921 0.517747
vt 0.773921 0.467313
vt 0.824355 0.517747
vt 0.824355 0.467313
vt 0.116524 0.891661
vt 0.066090 0.891661
vt 0.116524 0.841227
vt 0.066090 0.841227
vt 0.480001 0.631304
vt 0.480001 0.681738
vt 0.429567 0.631304
vt 0.429567 0.681738
vt 0.641741 0.631304
vt 0.641741 0.681739
vt 0.591307 0.631304
vt 0.591307 0.681739
vt 0.379133 0.580870
vt 0.429567 0.580870
vt 0.379133 0.631304
vt 0.379133 0.681738
vt 0.591307 0.732173
vt 0.540873 0.631304
vt 0.540873 0.681739
vt 0.540873 0.732173
vt 0.379133 0.732173
vt 0.328698 0.631304
vt 0.328698 0.732173
vt 0.490438 0.580870
vt 0.540873 0.580870
vt 0.490438 0.681739
vn 0.0000 0.0000 -1.0000
vn 0.0000 1.0000 0.0000
vn 1.0000 0.0000 0.0000
vn 0.0000 -1.0000 0.0000
vn -1.0000 0.0000 0.0000
vn 0.0000 0.0000 1.0000
vn 0.0000 0.0000 0.0000
usemtl palette
s off
f 70/1/1 104/2/1 106/3/1 73/4/1
f 103/5/2 73/6/2 106/7/2 109/8/2
f 71/9/3 70/10/3 73/11/3 103/12/3
f 105/13/4 104/14/4 70/15/4 71/16/4
f 109/17/5 106/18/5 104/19/5 105/20/5
f 110/21/4 176/22/4 189/23/4 164/24/4
f 116/25/6 110/26/6 164/27/6 166/28/6
f 178/29/5 176/30/5 110/31/5 116/32/5
f 178/33/2 116/34/2 166/35/2 190/36/2
f 190/37/1 189/38/1 176/39/1 178/40/1
f 166/41/3 164/42/3 189/43/3 190/44/3
f 228/45/7 229/46/7 193/47/7 191/48/7
f 191/48/6 193/47/6 195/49/6 194/50/6
f 194/51/4 230/52/4 228/53/4 191/54/4
f 231/55/2 195/56/2 193/57/2 229/58/2
f 230/59/6 231/60/6 229/46/6 228/45/6
f 268/61/7 233/62/7 232/63/7 266/64/7
f 194/50/7 195/49/7 231/60/7 230/59/7
f 233/62/6 235/65/6 234/66/6 232/63/6
f 232/67/4 234/68/4 269/69/4 266/70/4
f 268/71/2 270/72/2 235/73/2 233/74/2
f 271/75/6 275/76/6 277/77/6 273/78/6
f 270/79/6 268/61/6 266/64/6 269/80/6
f 274/81/2 273/82/2 277/83/2 57/84/2
f 276/85/6 272/86/6 274/87/6 57/88/6
f 272/86/7 271/75/7 273/78/7 274/87/7
f 276/89/4 275/90/4 271/91/4 272/92/4
f 235/65/7 270/79/7 269/80/7 234/66/7
f 57/88/7 277/77/7 275/76/7 276/85/7
f 105/93/6 71/94/6 103/95/6 109/96/6
s 1
f 1/97/5 2/98/5 3/99/5
f 4/100/5 2/98/5 1/97/5
f 5/101/5 4/100/5 1/97/5
f 6/102/5 4/100/5 5/101/5
f 7/103/5 8/104/5 9/105/5
f 10/106/5 8/104/5 7/103/5
f 11/107/5 7/103/5 9/105/5
f 12/108/5 7/103/5 11/107/5
f 13/109/5 8/104/5 10/106/5
f 14/110/5 8/104/5 13/109/5
f 15/111/5 12/108/5 11/107/5
f 16/112/5 14/110/5 13/109/5
f 17/113/5 15/111/5 11/107/5
f 18/114/5 15/111/5 17/113/5
f 19/115/5 14/110/5 16/112/5
f 20/116/5 14/110/5 19/115/5
f 21/117/5 22/118/5 23/119/5
f 24/120/5 22/118/5 21/117/5
f 25/121/5 22/118/5 24/120/5
f 26/122/5 25/121/5 24/120/5
f 27/123/5 25/121/5 26/122/5
f 28/124/5 27/123/5 26/122/5
f 29/125/5 27/123/5 28/124/5
f 33/126/5 34/127/5 35/128/5
f 36/129/5 34/127/5 33/126/5
f 37/130/5 38/131/5 39/132/5
f 40/133/5 38/131/5 37/130/5
f 41/134/5 38/131/5 40/133/5
f 42/135/5 41/134/5 40/133/5
f 43/136/5 41/134/5 42/135/5
f 44/137/5 43/136/5 42/135/5
f 45/138/5 43/136/5 44/137/5
f 46/139/3 47/140/3 48/141/3
f 48/141/3 47/140/3 49/142/3
f 49/142/3 47/140/3 50/143/3
f 49/142/3 50/143/3 51/144/3
f 51/144/3 50/143/3 52/145/3
f 51/144/3 52/145/3 53/146/3
f 53/146/3 52/145/3 54/147/3
f 58/148/3 59/149/3 60/150/3
f 60/150/3 59/149/3 61/151/3
f 61/151/3 59/149/3 62/152/3
f 61/151/3 62/152/3 63/153/3
f 63/153/3 62/152/3 64/154/3
f 63/153/3 64/154/3 65/155/3
f 65/155/3 64/154/3 66/156/3
f 74/157/3 75/158/3 76/159/3
f 76/159/3 75/158/3 77/160/3
f 74/157/3 76/159/3 78/161/3
f 78/161/3 76/159/3 79/162/3
f 77/160/3 75/158/3 80/163/3
f 80/163/3 75/158/3 81/164/3
f 78/161/3 79/162/3 82/165/3
f 80/163/3 81/164/3 83/166/3
f 78/161/3 82/165/3 84/167/3
f 84/167/3 82/165/3 85/168/3
f 83/166/3 81/164/3 86/169/3
f 86/169/3 81/164/3 87/170/3
f 88/171/3 89/172/3 90/173/3
f 90/173/3 89/172/3 91/174/3
f 90/173/3 91/174/3 92/175/3
f 92/175/3 91/174/3 93/176/3
f 94/177/6 95/178/6 96/179/6
f 97/180/6 98/181/6 99/182/6
f 100/183/6 98/181/6 97/180/6
f 101/184/6 94/177/6 96/179/6
f 102/185/6 94/177/6 101/184/6
f 107/186/6 101/184/6 96/179/6
f 107/186/6 102/185/6 101/184/6
f 108/187/6 102/185/6 107/186/6
f 111/188/6 112/189/6 113/190/6
f 114/191/6 112/189/6 111/188/6
f 115/192/6 108/187/6 107/186/6
f 118/193/6 96/179/6 119/194/6
f 120/195/6 107/186/6 96/179/6
f 120/195/6 96/179/6 118/193/6
f 120/195/6 115/192/6 107/186/6
f 121/196/6 115/192/6 120/195/6
f 122/197/6 123/198/6 124/199/6
f 125/200/6 123/198/6 122/197/6
f 126/201/6 127/202/6 123/198/6
f 126/201/6 123/198/6 125/200/6
f 128/203/6 127/202/6 126/201/6
f 129/204/6 130/205/6 131/206/6
f 132/207/6 133/208/6 130/205/6
f 132/207/6 130/205/6 129/204/6
f 134/209/6 133/208/6 132/207/6
f 135/210/6 136/211/6 137/212/6
f 138/213/6 139/214/6 136/211/6
f 138/213/6 136/211/6 135/210/6
f 140/215/6 139/214/6 138/213/6
f 141/216/6 142/217/6 143/218/6
f 141/216/6 144/219/6 142/217/6
f 145/220/6 146/221/6 144/219/6
f 145/220/6 144/219/6 141/216/6
f 147/222/6 146/221/6 145/220/6
f 148/223/1 149/224/1 150/225/1
f 150/225/1 149/224/1 151/226/1
f 149/224/1 152/227/1 153/228/1
f 151/226/1 149/224/1 153/228/1
f 153/228/1 152/227/1 154/229/1
f 155/230/1 156/231/1 157/232/1
f 156/231/1 158/233/1 159/234/1
f 157/232/1 156/231/1 159/234/1
f 158/233/1 160/235/1 161/236/1
f 159/234/1 158/233/1 161/236/1
f 161/236/1 160/235/1 162/237/1
f 167/238/1 168/239/1 169/240/1
f 168/239/1 170/241/1 171/242/1
f 169/240/1 168/239/1 171/242/1
f 170/241/1 172/243/1 173/244/1
f 171/242/1 170/241/1 173/244/1
f 173/244/1 172/243/1 174/245/1
f 179/246/1 180/247/1 181/248/1
f 180/247/1 182/249/1 181/248/1
f 182/249/1 183/250/1 184/251/1
f 181/248/1 182/249/1 184/251/1
f 184/251/1 183/250/1 185/252/1
f 186/253/1 187/254/1 188/255/1
f 186/253/1 188/255/1 192/256/1
f 196/257/1 186/253/1 197/258/1
f 186/253/1 192/256/1 198/259/1
f 197/258/1 186/253/1 198/259/1
f 198/259/1 192/256/1 199/260/1
f 200/261/4 201/262/4 202/263/4
f 203/264/4 201/262/4 200/261/4
f 204/265/4 205/266/4 206/267/4
f 207/268/4 205/266/4 204/265/4
f 208/269/4 209/270/4 210/271/4
f 211/272/4 209/270/4 208/269/4
f 212/273/4 209/270/4 211/272/4
f 213/274/4 209/270/4 212/273/4
f 214/275/4 208/269/4 210/271/4
f 215/276/4 212/273/4 211/272/4
f 216/277/4 212/273/4 215/276/4
f 217/278/4 209/270/4 213/274/4
f 218/279/4 216/277/4 215/276/4
f 218/279/4 217/278/4 216/277/4
f 218/279/4 214/275/4 210/271/4
f 218/279/4 215/276/4 214/275/4
f 219/280/4 209/270/4 217/278/4
f 219/280/4 217/278/4 218/279/4
f 220/281/4 221/282/4 222/283/4
f 223/284/4 221/282/4 220/281/4
f 224/285/4 225/286/4 226/287/4
f 227/288/4 225/286/4 224/285/4
f 236/289/2 237/290/2 238/291/2
f 238/291/2 237/290/2 239/292/2
f 240/293/2 241/294/2 242/295/2
f 242/295/2 241/294/2 243/296/2
f 244/297/2 245/298/2 246/299/2
f 246/299/2 245/298/2 247/300/2
f 248/301/2 249/302/2 250/303/2
f 250/303/2 249/302/2 251/304/2
f 246/299/2 247/300/2 252/305/2
f 253/306/2 246/299/2 252/305/2
f 252/305/2 247/300/2 254/307/2
f 254/307/2 247/300/2 255/308/2
f 251/304/2 256/309/2 257/310/2
f 250/303/2 251/304/2 257/310/2
f 257/310/2 256/309/2 258/311/2
f 258/311/2 256/309/2 259/312/2
f 255/308/2 260/313/2 261/314/2
f 254/307/2 255/308/2 261/314/2
f 261/314/2 260/313/2 262/315/2
f 257/310/2 258/311/2 263/316/2
f 264/317/2 257/310/2 263/316/2
f 263/316/2 258/311/2 265/318/2
l 55 56
l 163 165
l 175 177
l 30 31
l 30 32
l 67 68
l 68 69
