# Blender v3.0.1 OBJ File: 'rob.blend'
# www.blender.org
mtllib rob.mtl
o juwan
v 1.600000 2.900000 -2.000000
v 1.600000 2.600000 -2.099999
v 1.600000 2.600000 -2.000000
v 1.600000 2.900000 -2.099999
v 1.600000 3.100000 -2.000000
v 1.600000 3.100000 -2.099999
v 1.700000 2.600000 -2.000000
v 1.700000 2.500000 -2.200000
v 1.700000 2.500000 -1.900000
v 1.700000 2.600000 -2.099999
v 1.700000 2.700000 -1.899999
v 1.700000 2.700000 -2.000000
v 1.700000 2.700000 -2.099999
v 1.700000 2.700001 -2.200000
v 1.700000 2.900000 -2.000000
v 1.700000 2.900000 -2.099999
v 1.700000 3.100000 -1.899999
v 1.700000 3.100000 -2.000000
v 1.700000 3.100000 -2.099999
v 1.700000 3.100000 -2.200000
v 1.800000 2.100000 -1.900000
v 1.800000 2.000000 -2.100000
v 1.800000 2.000000 -1.900000
v 1.800000 2.100000 -2.000000
v 1.800000 2.100000 -2.100000
v 1.800000 2.300000 -2.000000
v 1.800000 2.300000 -2.099999
v 1.800000 2.500000 -2.000000
v 1.800000 2.500000 -2.099999
v 1.800000 3.200000 -2.000000
v 1.800000 3.100000 -2.000000
v 1.800000 3.100000 -1.899999
v 1.800000 3.100000 -2.099999
v 1.800000 3.200000 -2.099999
v 1.800000 3.300000 -1.899999
v 1.800000 3.300000 -2.099999
v 1.800000 3.200001 -2.200000
v 1.800000 3.500000 -1.899999
v 1.800000 3.500000 -2.200000
v 1.900000 3.200000 -2.099999
v 1.900000 3.100000 -2.200000
v 1.900000 3.100000 -2.099999
v 1.900000 3.200001 -2.200000
v 2.000000 2.100000 -1.900000
v 2.000000 2.000000 -2.100000
v 2.000000 2.000000 -1.900000
v 2.000000 2.100000 -2.000000
v 2.000000 2.100000 -2.100000
v 2.000000 2.300000 -2.000000
v 2.000000 2.300000 -2.099999
v 2.000000 2.500000 -2.000000
v 2.000000 2.500000 -2.099999
v 1.900000 2.000000 -1.900000
v 1.900000 2.000000 -2.100000
v 1.900000 2.100000 -1.900000
v 1.900000 2.100000 -2.000000
v 1.900000 2.100000 -2.100000
v 1.900000 2.300000 -2.000000
v 1.900000 2.300000 -2.099999
v 1.900000 2.500000 -2.000000
v 1.900000 2.500000 -2.099999
v 2.000000 3.100000 -2.099999
v 2.000000 3.100000 -2.200000
v 2.000000 3.200000 -2.099999
v 2.000000 3.200001 -2.200000
v 2.100000 2.000000 -1.900000
v 2.100000 2.000000 -2.100000
v 2.100000 2.100000 -1.900000
v 2.100000 2.100000 -2.000000
v 2.100000 2.100000 -2.100000
v 2.100000 2.300000 -2.000000
v 2.100000 2.300000 -2.099999
v 2.100000 2.500000 -2.000000
v 2.100000 2.500000 -2.099999
v 2.100000 3.100000 -1.899999
v 2.100000 3.100000 -2.000000
v 2.100000 3.200000 -2.000000
v 2.100000 3.100000 -2.099999
v 2.100000 3.200000 -2.099999
v 2.100000 3.300000 -1.899999
v 2.100000 3.200001 -2.200000
v 2.100000 3.300000 -2.099999
v 2.100000 3.500000 -1.899999
v 2.100000 3.500000 -2.200000
v 2.200000 2.500000 -1.900000
v 2.200000 2.500000 -2.200000
v 2.200000 2.600000 -2.000000
v 2.200000 2.600000 -2.099999
v 2.200000 2.700000 -1.899999
v 2.200000 2.700000 -2.000000
v 2.200000 2.700000 -2.099999
v 2.200000 2.700001 -2.200000
v 2.200000 2.900000 -2.000000
v 2.200000 2.900000 -2.099999
v 2.200000 3.100000 -1.899999
v 2.200000 3.100000 -2.000000
v 2.200000 3.100000 -2.099999
v 2.200000 3.100000 -2.200000
v 2.300000 2.600000 -2.000000
v 2.300000 2.600000 -2.099999
v 2.300000 2.900000 -2.000000
v 2.300000 2.900000 -2.099999
v 2.300000 3.100000 -2.000000
v 2.300000 3.100000 -2.099999
v 1.800000 3.100000 -1.899999
v 1.700000 3.100000 -1.899999
v 1.700000 2.700000 -1.899999
v 1.900000 2.000000 -1.900000
v 1.800000 2.100000 -1.900000
v 1.800000 2.000000 -1.900000
v 1.900000 2.100000 -1.900000
v 1.900000 3.000000 -1.899999
v 1.900000 3.100000 -1.899999
v 1.800000 3.300000 -1.899999
v 1.900000 3.200000 -1.899999
v 1.900642 3.300045 -1.900186
v 1.800000 3.500000 -1.899999
v 2.000000 3.000000 -1.899999
v 2.000000 3.100000 -1.899999
v 2.000000 3.200000 -1.899999
v 2.000000 3.300000 -1.899999
v 2.100000 2.000000 -1.900000
v 2.000000 2.100000 -1.900000
v 2.000000 2.000000 -1.900000
v 2.100000 2.100000 -1.900000
v 2.100000 3.100000 -1.899999
v 2.100000 3.300000 -1.899999
v 2.100000 3.500000 -1.899999
v 2.200000 2.500000 -1.900000
v 1.700000 2.500000 -1.900000
v 2.200000 2.700000 -1.899999
v 2.200000 3.100000 -1.899999
v 1.700000 2.600000 -2.000000
v 1.600000 2.900000 -2.000000
v 1.600000 2.600000 -2.000000
v 1.700000 2.700000 -2.000000
v 1.700000 2.900000 -2.000000
v 1.600000 3.100000 -2.000000
v 1.700000 3.100000 -2.000000
v 1.900000 2.100000 -2.000000
v 1.800000 2.300000 -2.000000
v 1.800000 2.100000 -2.000000
v 1.900000 2.300000 -2.000000
v 1.800000 2.500000 -2.000000
v 1.900000 2.500000 -2.000000
v 2.100000 2.100000 -2.000000
v 2.000000 2.300000 -2.000000
v 2.000000 2.100000 -2.000000
v 2.100000 2.300000 -2.000000
v 2.000000 2.500000 -2.000000
v 2.100000 2.500000 -2.000000
v 2.300000 2.600000 -2.000000
v 2.200000 2.700000 -2.000000
v 2.200000 2.600000 -2.000000
v 2.200000 2.900000 -2.000000
v 2.300000 2.900000 -2.000000
v 2.200000 3.100000 -2.000000
v 2.300000 3.100000 -2.000000
v 1.600000 2.600000 -2.099999
v 1.600000 2.900000 -2.099999
v 1.700000 2.600000 -2.099999
v 1.700000 2.700000 -2.099999
v 1.600000 3.100000 -2.099999
v 1.700000 2.900000 -2.099999
v 1.700000 3.100000 -2.099999
v 1.800000 2.000000 -2.100000
v 1.800000 2.100000 -2.100000
v 1.900000 2.000000 -2.100000
v 1.800000 2.300000 -2.099999
v 1.900000 2.100000 -2.100000
v 1.800000 2.500000 -2.099999
v 1.900000 2.300000 -2.099999
v 1.900000 2.500000 -2.099999
v 1.800000 3.100000 -2.099999
v 1.800000 3.200000 -2.099999
v 1.900000 3.100000 -2.099999
v 1.900000 3.200000 -2.099999
v 2.000000 2.000000 -2.100000
v 2.000000 2.100000 -2.100000
v 2.100000 2.000000 -2.100000
v 2.000000 2.300000 -2.099999
v 2.100000 2.100000 -2.100000
v 2.000000 2.500000 -2.099999
v 2.100000 2.300000 -2.099999
v 2.100000 2.500000 -2.099999
v 2.000000 3.100000 -2.099999
v 2.000000 3.200000 -2.099999
v 2.100000 3.100000 -2.099999
v 2.100000 3.200000 -2.099999
v 2.200000 2.600000 -2.099999
v 2.200000 2.700000 -2.099999
v 2.300000 2.600000 -2.099999
v 2.200000 2.900000 -2.099999
v 2.200000 3.100000 -2.099999
v 2.300000 2.900000 -2.099999
v 2.300000 3.100000 -2.099999
v 1.700000 2.700001 -2.200000
v 1.700000 3.100000 -2.200000
v 1.900000 3.100000 -2.200000
v 1.800000 3.200001 -2.200000
v 1.800000 3.500000 -2.200000
v 1.900000 3.200001 -2.200000
v 2.000000 3.100000 -2.200000
v 2.000000 3.200001 -2.200000
v 2.100000 3.200001 -2.200000
v 2.100000 3.500000 -2.200000
v 1.700000 2.500000 -2.200000
v 2.200000 2.500000 -2.200000
v 2.200000 2.700001 -2.200000
v 2.200000 3.100000 -2.200000
v 1.800000 2.000000 -2.100000
v 1.900000 2.000000 -1.900000
v 1.800000 2.000000 -1.900000
v 1.900000 2.000000 -2.100000
v 2.000000 2.000000 -2.100000
v 2.100000 2.000000 -1.900000
v 2.000000 2.000000 -1.900000
v 2.100000 2.000000 -2.100000
v 1.800000 2.500000 -2.000000
v 2.200000 2.500000 -1.900000
v 1.700000 2.500000 -1.900000
v 1.900000 2.500000 -2.000000
v 2.000000 2.500000 -2.000000
v 2.100000 2.500000 -2.000000
v 1.800000 2.500000 -2.099999
v 1.900000 2.500000 -2.099999
v 2.000000 2.500000 -2.099999
v 2.100000 2.500000 -2.099999
v 1.700000 2.500000 -2.200000
v 2.200000 2.500000 -2.200000
v 1.600000 2.600000 -2.099999
v 1.700000 2.600000 -2.000000
v 1.600000 2.600000 -2.000000
v 1.700000 2.600000 -2.099999
v 2.200000 2.600000 -2.099999
v 2.300000 2.600000 -2.000000
v 2.200000 2.600000 -2.000000
v 2.300000 2.600000 -2.099999
v 1.800000 3.200001 -2.200000
v 1.900000 3.200000 -2.099999
v 1.800000 3.200000 -2.099999
v 1.900000 3.200001 -2.200000
v 2.000000 3.200001 -2.200000
v 2.100000 3.200000 -2.099999
v 2.000000 3.200000 -2.099999
v 2.100000 3.200001 -2.200000
v 1.800000 2.100000 -1.900000
v 1.900000 2.100000 -1.900000
v 1.800000 2.100000 -2.000000
v 1.900000 2.100000 -2.000000
v 2.000000 2.100000 -1.900000
v 2.100000 2.100000 -1.900000
v 2.000000 2.100000 -2.000000
v 2.100000 2.100000 -2.000000
v 1.700000 3.100000 -1.899999
v 1.800000 3.100000 -1.899999
v 1.700000 3.100000 -2.000000
v 1.800000 3.100000 -2.000000
v 2.100000 3.100000 -1.899999
v 2.200000 3.100000 -1.899999
v 2.100000 3.100000 -2.000000
v 2.200000 3.100000 -2.000000
v 1.600000 3.100000 -2.099999
v 1.600000 3.100000 -2.000000
v 1.700000 3.100000 -2.099999
v 1.800000 3.100000 -2.099999
v 2.300000 3.100000 -2.000000
v 2.100000 3.100000 -2.099999
v 2.200000 3.100000 -2.099999
v 2.300000 3.100000 -2.099999
v 1.900000 3.100000 -2.099999
v 1.700000 3.100000 -2.200000
v 1.900000 3.100000 -2.200000
v 2.000000 3.100000 -2.200000
v 2.000000 3.100000 -2.099999
v 2.200000 3.100000 -2.200000
v 1.800000 3.500000 -1.899999
v 2.100000 3.500000 -1.899999
v 1.800000 3.500000 -2.200000
v 2.100000 3.500000 -2.200000
v 1.800000 3.500000 -2.200000
v 2.100000 3.500000 -2.200000
v 1.800000 3.500000 -2.200000
v 2.100000 3.500000 -2.200000
v 1.800000 3.300000 -1.899999
v 1.800000 3.500000 -1.899999
v 1.803750 3.431537 -1.900749
v 1.803750 3.431537 -1.822687
v 1.803750 3.452554 -1.900749
v 1.803750 3.452554 -1.822687
v 2.098225 3.431537 -1.900749
v 2.098225 3.431537 -1.822687
v 2.098225 3.452554 -1.900749
v 2.098225 3.452554 -1.822687
vt 0.510855 0.855845
vt 0.510855 0.896165
vt 0.500000 0.896165
vt 0.500000 0.855845
vt 0.695271 0.797006
vt 0.654951 0.797006
vt 0.654951 0.644909
vt 0.695271 0.644909
vt 0.902534 0.809902
vt 0.902534 0.850222
vt 0.891678 0.850222
vt 0.891678 0.809902
vt 0.695271 0.959146
vt 0.654951 0.959146
vt 0.654951 0.807048
vt 0.695271 0.807048
vt 0.510855 0.693706
vt 0.510855 0.845803
vt 0.500000 0.845803
vt 0.500000 0.693706
vt 0.510855 0.531566
vt 0.510855 0.683664
vt 0.500000 0.683664
vt 0.500000 0.531566
vt 0.943329 0.108322
vt 0.994979 0.263273
vt 0.943329 0.263273
vt 0.994979 0.108322
vt 0.943329 0.005021
vt 0.994979 0.005021
vt 0.593259 0.263273
vt 0.696560 0.314923
vt 0.541608 0.314923
vt 0.644909 0.263273
vt 0.541608 0.211622
vt 0.593259 0.211622
vt 0.644909 0.211622
vt 0.696560 0.211622
vt 0.593259 0.108322
vt 0.644909 0.108322
vt 0.541608 0.005021
vt 0.593259 0.005021
vt 0.644909 0.005021
vt 0.696560 0.005021
vt 0.706602 0.748210
vt 0.809902 0.799860
vt 0.706602 0.799860
vt 0.758252 0.748210
vt 0.809902 0.748210
vt 0.758252 0.644909
vt 0.809902 0.644909
vt 0.758252 0.541608
vt 0.809902 0.541608
vt 0.386657 0.686517
vt 0.386657 0.738168
vt 0.335007 0.738168
vt 0.438308 0.738168
vt 0.438308 0.686517
vt 0.335007 0.634867
vt 0.438308 0.634867
vt 0.489958 0.686517
vt 0.335007 0.531566
vt 0.489958 0.531566
vt 0.829986 0.861552
vt 0.881637 0.809902
vt 0.881637 0.861552
vt 0.829986 0.809902
vt 0.541608 0.851511
vt 0.644909 0.903161
vt 0.541608 0.903161
vt 0.593259 0.851511
vt 0.644909 0.851511
vt 0.593259 0.748210
vt 0.644909 0.748210
vt 0.593259 0.644909
vt 0.644909 0.644909
vt 0.809902 0.263273
vt 0.706601 0.263273
vt 0.809902 0.211622
vt 0.758252 0.211622
vt 0.706601 0.211622
vt 0.758252 0.108322
vt 0.706601 0.108322
vt 0.758252 0.005021
vt 0.706601 0.005021
vt 0.829986 0.923245
vt 0.829986 0.871594
vt 0.881637 0.923245
vt 0.881637 0.871594
vt 0.809902 0.531566
vt 0.706601 0.531566
vt 0.809902 0.479916
vt 0.758252 0.479916
vt 0.706601 0.479916
vt 0.758252 0.376615
vt 0.706601 0.376615
vt 0.758252 0.273314
vt 0.706601 0.273314
vt 0.170014 0.531566
vt 0.221664 0.531566
vt 0.221664 0.583217
vt 0.273315 0.531566
vt 0.273315 0.583217
vt 0.170014 0.634867
vt 0.324965 0.583217
vt 0.273315 0.634867
vt 0.170014 0.738168
vt 0.324965 0.738168
vt 0.541608 0.324965
vt 0.696560 0.324965
vt 0.593259 0.376616
vt 0.644909 0.376616
vt 0.541608 0.428266
vt 0.593259 0.428266
vt 0.644909 0.428266
vt 0.696560 0.428266
vt 0.593259 0.531567
vt 0.644909 0.531567
vt 0.541608 0.634867
vt 0.593259 0.634867
vt 0.644909 0.634867
vt 0.696560 0.634867
vt 0.881637 0.541608
vt 0.933287 0.541608
vt 0.881637 0.696560
vt 0.933287 0.696560
vt 0.881637 0.799860
vt 0.933287 0.799860
vt 0.211622 0.211622
vt 0.263273 0.211622
vt 0.263273 0.418224
vt 0.768294 0.923245
vt 0.819944 0.974895
vt 0.768294 0.974895
vt 0.819944 0.923245
vt 0.159972 0.263273
vt 0.159972 0.211622
vt 0.211622 0.108322
vt 0.159972 0.159972
vt 0.159640 0.108298
vt 0.211622 0.005021
vt 0.108322 0.263273
vt 0.108322 0.211622
vt 0.108322 0.159972
vt 0.108322 0.108322
vt 0.478475 0.964854
vt 0.530126 0.913203
vt 0.530126 0.964854
vt 0.478475 0.913203
vt 0.056671 0.211622
vt 0.056671 0.108322
vt 0.056671 0.005021
vt 0.005021 0.521525
vt 0.263273 0.521525
vt 0.005021 0.418224
vt 0.005021 0.211622
vt 0.819944 0.263273
vt 0.871595 0.108322
vt 0.871595 0.263273
vt 0.819944 0.211622
vt 0.819944 0.108322
vt 0.871595 0.005021
vt 0.819944 0.005021
vt 0.943329 0.964853
vt 0.994979 0.861552
vt 0.994979 0.964853
vt 0.943329 0.861552
vt 0.994979 0.758252
vt 0.943329 0.758252
vt 0.943329 0.748210
vt 0.994979 0.644909
vt 0.994979 0.748210
vt 0.943329 0.644909
vt 0.994979 0.541608
vt 0.943329 0.541608
vt 0.881636 0.531566
vt 0.933287 0.479916
vt 0.933287 0.531566
vt 0.933287 0.376615
vt 0.881636 0.376615
vt 0.933287 0.273314
vt 0.881636 0.273314
vt 0.819944 0.531566
vt 0.819944 0.376615
vt 0.871595 0.531566
vt 0.871595 0.479916
vt 0.819944 0.273314
vt 0.871595 0.376615
vt 0.871595 0.273314
vt 0.819944 0.799860
vt 0.819944 0.748210
vt 0.871595 0.799860
vt 0.819944 0.644909
vt 0.871595 0.748210
vt 0.819944 0.541608
vt 0.871595 0.644909
vt 0.871595 0.541608
vt 0.170014 0.964853
vt 0.170014 0.913203
vt 0.221664 0.964853
vt 0.221664 0.913203
vt 0.881637 0.263273
vt 0.881637 0.211622
vt 0.933287 0.263273
vt 0.881637 0.108322
vt 0.933287 0.211622
vt 0.881637 0.005021
vt 0.933287 0.108322
vt 0.933287 0.005021
vt 0.416783 0.964853
vt 0.416783 0.913203
vt 0.468433 0.964853
vt 0.468433 0.913203
vt 0.943329 0.531566
vt 0.943329 0.479916
vt 0.994979 0.531566
vt 0.943329 0.376615
vt 0.943329 0.273314
vt 0.994979 0.376615
vt 0.994979 0.273314
vt 0.273315 0.418224
vt 0.273315 0.211622
vt 0.376616 0.211622
vt 0.324965 0.159972
vt 0.324965 0.005021
vt 0.376616 0.159972
vt 0.428266 0.211622
vt 0.428266 0.159972
vt 0.479916 0.159972
vt 0.479916 0.005021
vt 0.273315 0.521525
vt 0.531567 0.521525
vt 0.531567 0.418224
vt 0.531567 0.211622
vt 0.706602 0.809902
vt 0.758252 0.913203
vt 0.706602 0.913203
vt 0.758252 0.809902
vt 0.768294 0.809902
vt 0.819944 0.913203
vt 0.768294 0.913203
vt 0.819944 0.809902
vt 0.056671 0.583217
vt 0.005021 0.789818
vt 0.005021 0.531567
vt 0.056671 0.634867
vt 0.056671 0.686517
vt 0.056671 0.738168
vt 0.108322 0.583217
vt 0.108322 0.634867
vt 0.108322 0.686517
vt 0.108322 0.738168
vt 0.159972 0.531567
vt 0.159972 0.789818
vt 0.758252 0.923245
vt 0.706602 0.974895
vt 0.706602 0.923245
vt 0.758252 0.974895
vt 0.829986 0.933287
vt 0.881637 0.984937
vt 0.829986 0.984937
vt 0.881637 0.933287
vt 0.231706 0.913203
vt 0.283357 0.964853
vt 0.231706 0.964853
vt 0.283357 0.913203
vt 0.293399 0.913203
vt 0.345049 0.964853
vt 0.293399 0.964853
vt 0.345049 0.913203
vt 0.355091 0.964853
vt 0.355091 0.913203
vt 0.406741 0.964853
vt 0.406741 0.913203
vt 0.593259 0.964853
vt 0.541608 0.964853
vt 0.593259 0.913203
vt 0.541608 0.913203
vt 0.159972 0.851511
vt 0.159972 0.903161
vt 0.108322 0.851511
vt 0.108322 0.903161
vt 0.489958 0.799860
vt 0.489958 0.851511
vt 0.438308 0.799860
vt 0.438308 0.851511
vt 0.056671 0.799860
vt 0.108322 0.799860
vt 0.056671 0.851511
vt 0.056671 0.903161
vt 0.438308 0.903161
vt 0.386657 0.799860
vt 0.386657 0.851511
vt 0.386657 0.903161
vt 0.056671 0.954811
vt 0.005021 0.851511
vt 0.005021 0.954811
vt 0.335007 0.748210
vt 0.386657 0.748210
vt 0.335007 0.851511
vt 0.324965 0.903161
vt 0.170014 0.903161
vt 0.324965 0.748210
vt 0.170014 0.748210
vt 0.520897 0.541608
vt 0.520897 0.541608
vt 0.520897 0.541608
vt 0.520897 0.541608
vt 0.530939 0.531567
vt 0.530939 0.531567
vt 0.530939 0.531567
vt 0.530939 0.531567
vt 0.520897 0.531567
vt 0.520897 0.531567
vt 0.520897 0.531567
vt 0.520897 0.531567
vn -1.0000 0.0000 0.0000
vn 0.0000 1.0000 0.0000
vn 1.0000 0.0000 0.0000
vn 0.0000 -1.0000 0.0000
vn 0.0000 0.0000 -1.0000
vn 0.0000 0.0000 1.0000
vn 0.0009 0.0003 1.0000
vn 0.0002 0.0007 1.0000
vn -0.0001 0.0001 1.0000
vn 0.0001 -0.0002 1.0000
vn -0.0002 0.0002 1.0000
vn -0.0007 -0.0002 1.0000
vn 0.4529 0.7548 -0.4744
vn 0.0000 0.7071 0.7071
usemtl palette
s off
f 287/1/1 288/2/1 290/3/1 289/4/1
f 289/5/2 290/6/2 294/7/2 293/8/2
f 293/9/3 294/10/3 292/11/3 291/12/3
f 291/13/4 292/14/4 288/15/4 287/16/4
f 289/17/5 293/18/5 291/19/5 287/20/5
f 294/21/6 290/22/6 288/23/6 292/24/6
s 1
f 1/25/1 2/26/1 3/27/1
f 4/28/1 2/26/1 1/25/1
f 5/29/1 4/28/1 1/25/1
f 6/30/1 4/28/1 5/29/1
f 7/31/1 8/32/1 9/33/1
f 10/34/1 8/32/1 7/31/1
f 11/35/1 7/31/1 9/33/1
f 12/36/1 7/31/1 11/35/1
f 13/37/1 8/32/1 10/34/1
f 14/38/1 8/32/1 13/37/1
f 15/39/1 12/36/1 11/35/1
f 16/40/1 14/38/1 13/37/1
f 17/41/1 15/39/1 11/35/1
f 18/42/1 15/39/1 17/41/1
f 19/43/1 14/38/1 16/40/1
f 20/44/1 14/38/1 19/43/1
f 21/45/1 22/46/1 23/47/1
f 24/48/1 22/46/1 21/45/1
f 25/49/1 22/46/1 24/48/1
f 26/50/1 25/49/1 24/48/1
f 27/51/1 25/49/1 26/50/1
f 28/52/1 27/51/1 26/50/1
f 29/53/1 27/51/1 28/52/1
f 30/54/1 31/55/1 32/56/1
f 30/54/1 33/57/1 31/55/1
f 34/58/1 33/57/1 30/54/1
f 35/59/1 34/58/1 30/54/1
f 35/59/1 30/54/1 32/56/1
f 36/60/1 37/61/1 34/58/1
f 36/60/1 34/58/1 35/59/1
f 38/62/1 36/60/1 35/59/1
f 39/63/1 37/61/1 36/60/1
f 39/63/1 36/60/1 38/62/1
f 40/64/1 41/65/1 42/66/1
f 43/67/1 41/65/1 40/64/1
f 44/68/1 45/69/1 46/70/1
f 47/71/1 45/69/1 44/68/1
f 48/72/1 45/69/1 47/71/1
f 49/73/1 48/72/1 47/71/1
f 50/74/1 48/72/1 49/73/1
f 51/75/1 50/74/1 49/73/1
f 52/76/1 50/74/1 51/75/1
f 53/77/3 54/78/3 55/79/3
f 55/79/3 54/78/3 56/80/3
f 56/80/3 54/78/3 57/81/3
f 56/80/3 57/81/3 58/82/3
f 58/82/3 57/81/3 59/83/3
f 58/82/3 59/83/3 60/84/3
f 60/84/3 59/83/3 61/85/3
f 62/86/3 63/87/3 64/88/3
f 64/88/3 63/87/3 65/89/3
f 66/90/3 67/91/3 68/92/3
f 68/92/3 67/91/3 69/93/3
f 69/93/3 67/91/3 70/94/3
f 69/93/3 70/94/3 71/95/3
f 71/95/3 70/94/3 72/96/3
f 71/95/3 72/96/3 73/97/3
f 73/97/3 72/96/3 74/98/3
f 75/99/3 76/100/3 77/101/3
f 76/100/3 78/102/3 77/101/3
f 77/101/3 78/102/3 79/103/3
f 77/101/3 79/103/3 80/104/3
f 75/99/3 77/101/3 80/104/3
f 79/103/3 81/105/3 82/106/3
f 80/104/3 79/103/3 82/106/3
f 80/104/3 82/106/3 83/107/3
f 82/106/3 81/105/3 84/108/3
f 83/107/3 82/106/3 84/108/3
f 85/109/3 86/110/3 87/111/3
f 87/111/3 86/110/3 88/112/3
f 85/109/3 87/111/3 89/113/3
f 89/113/3 87/111/3 90/114/3
f 88/112/3 86/110/3 91/115/3
f 91/115/3 86/110/3 92/116/3
f 89/113/3 90/114/3 93/117/3
f 91/115/3 92/116/3 94/118/3
f 89/113/3 93/117/3 95/119/3
f 95/119/3 93/117/3 96/120/3
f 94/118/3 92/116/3 97/121/3
f 97/121/3 92/116/3 98/122/3
f 99/123/3 100/124/3 101/125/3
f 101/125/3 100/124/3 102/126/3
f 101/125/3 102/126/3 103/127/3
f 103/127/3 102/126/3 104/128/3
f 105/129/6 106/130/6 107/131/6
f 108/132/6 109/133/6 110/134/6
f 111/135/6 109/133/6 108/132/6
f 112/136/6 105/129/6 107/131/6
f 113/137/6 114/138/7 105/129/6
f 113/137/6 105/129/6 112/136/6
f 115/139/8 114/138/7 113/137/6
f 116/140/9 117/141/10 114/138/7
f 116/140/9 114/138/7 115/139/8
f 118/142/6 112/136/6 107/131/6
f 118/142/6 113/137/6 112/136/6
f 119/143/6 115/139/8 113/137/6
f 119/143/6 113/137/6 118/142/6
f 120/144/11 116/140/9 115/139/8
f 120/144/11 115/139/8 119/143/6
f 121/145/12 117/141/10 116/140/9
f 121/145/12 116/140/9 120/144/11
f 122/146/6 123/147/6 124/148/6
f 125/149/6 123/147/6 122/146/6
f 126/150/6 120/144/11 119/143/6
f 126/150/6 119/143/6 118/142/6
f 126/150/6 121/145/12 120/144/11
f 127/151/6 117/141/10 121/145/12
f 127/151/6 121/145/12 126/150/6
f 128/152/6 117/141/10 127/151/6
f 129/153/6 107/131/6 130/154/6
f 131/155/6 118/142/6 107/131/6
f 131/155/6 107/131/6 129/153/6
f 131/155/6 126/150/6 118/142/6
f 132/156/6 126/150/6 131/155/6
f 133/157/6 134/158/6 135/159/6
f 136/160/6 134/158/6 133/157/6
f 137/161/6 138/162/6 134/158/6
f 137/161/6 134/158/6 136/160/6
f 139/163/6 138/162/6 137/161/6
f 140/164/6 141/165/6 142/166/6
f 143/167/6 144/168/6 141/165/6
f 143/167/6 141/165/6 140/164/6
f 145/169/6 144/168/6 143/167/6
f 146/170/6 147/171/6 148/172/6
f 149/173/6 150/174/6 147/171/6
f 149/173/6 147/171/6 146/170/6
f 151/175/6 150/174/6 149/173/6
f 152/176/6 153/177/6 154/178/6
f 152/176/6 155/179/6 153/177/6
f 156/180/6 157/181/6 155/179/6
f 156/180/6 155/179/6 152/176/6
f 158/182/6 157/181/6 156/180/6
f 159/183/5 160/184/5 161/185/5
f 161/185/5 160/184/5 162/186/5
f 160/184/5 163/187/5 164/188/5
f 162/186/5 160/184/5 164/188/5
f 164/188/5 163/187/5 165/189/5
f 166/190/5 167/191/5 168/192/5
f 167/191/5 169/193/5 170/194/5
f 168/192/5 167/191/5 170/194/5
f 169/193/5 171/195/5 172/196/5
f 170/194/5 169/193/5 172/196/5
f 172/196/5 171/195/5 173/197/5
f 174/198/5 175/199/5 176/200/5
f 176/200/5 175/199/5 177/201/5
f 178/202/5 179/203/5 180/204/5
f 179/203/5 181/205/5 182/206/5
f 180/204/5 179/203/5 182/206/5
f 181/205/5 183/207/5 184/208/5
f 182/206/5 181/205/5 184/208/5
f 184/208/5 183/207/5 185/209/5
f 186/210/5 187/211/5 188/212/5
f 188/212/5 187/211/5 189/213/5
f 190/214/5 191/215/5 192/216/5
f 191/215/5 193/217/5 192/216/5
f 193/217/5 194/218/5 195/219/5
f 192/216/5 193/217/5 195/219/5
f 195/219/5 194/218/5 196/220/5
f 197/221/5 198/222/5 199/223/5
f 200/224/5 201/225/5 202/226/5
f 197/221/5 199/223/5 203/227/5
f 199/223/5 202/226/5 203/227/5
f 202/226/5 201/225/5 204/228/5
f 203/227/5 202/226/5 204/228/5
f 204/228/5 201/225/5 205/229/5
f 205/229/5 201/225/5 206/230/13
f 207/231/5 197/221/5 208/232/5
f 197/221/5 203/227/5 209/233/5
f 208/232/5 197/221/5 209/233/5
f 209/233/5 203/227/5 210/234/5
f 211/235/4 212/236/4 213/237/4
f 214/238/4 212/236/4 211/235/4
f 215/239/4 216/240/4 217/241/4
f 218/242/4 216/240/4 215/239/4
f 219/243/4 220/244/4 221/245/4
f 222/246/4 220/244/4 219/243/4
f 223/247/4 220/244/4 222/246/4
f 224/248/4 220/244/4 223/247/4
f 225/249/4 219/243/4 221/245/4
f 226/250/4 223/247/4 222/246/4
f 227/251/4 223/247/4 226/250/4
f 228/252/4 220/244/4 224/248/4
f 229/253/4 227/251/4 226/250/4
f 229/253/4 228/252/4 227/251/4
f 229/253/4 225/249/4 221/245/4
f 229/253/4 226/250/4 225/249/4
f 230/254/4 220/244/4 228/252/4
f 230/254/4 228/252/4 229/253/4
f 231/255/4 232/256/4 233/257/4
f 234/258/4 232/256/4 231/255/4
f 235/259/4 236/260/4 237/261/4
f 238/262/4 236/260/4 235/259/4
f 239/263/4 240/264/4 241/265/4
f 242/266/4 240/264/4 239/263/4
f 243/267/4 244/268/4 245/269/4
f 246/270/4 244/268/4 243/267/4
f 247/271/2 248/272/2 249/273/2
f 249/273/2 248/272/2 250/274/2
f 251/275/2 252/276/2 253/277/2
f 253/277/2 252/276/2 254/278/2
f 255/279/2 256/280/2 257/281/2
f 257/281/2 256/280/2 258/282/2
f 259/283/2 260/284/2 261/285/2
f 261/285/2 260/284/2 262/286/2
f 257/281/2 258/282/2 263/287/2
f 264/288/2 257/281/2 263/287/2
f 263/287/2 258/282/2 265/289/2
f 265/289/2 258/282/2 266/290/2
f 262/286/2 267/291/2 268/292/2
f 261/285/2 262/286/2 268/292/2
f 268/292/2 267/291/2 269/293/2
f 269/293/2 267/291/2 270/294/2
f 266/290/2 271/295/2 272/296/2
f 265/289/2 266/290/2 272/296/2
f 272/296/2 271/295/2 273/297/2
f 268/292/2 269/293/2 274/298/2
f 275/299/2 268/292/2 274/298/2
f 274/298/2 269/293/2 276/300/2
f 277/301/2 278/302/2 279/303/14
f 279/303/14 278/302/2 280/304/14
f 206/305/13 201/306/5 281/307/6 282/308/6
f 279/309/14 280/310/14 284/311/6 283/312/6
f 114/313/7 117/314/10 286/315/6 285/316/6
